<svg width="153" height="153" viewBox="0 0 150 153" fill="none" xmlns="http://www.w3.org/2000/svg"><path d="M143.75 66.938h-37.5v19.124h37.5V66.939Z" fill="#188038"/><path d="M40.625 111.562C21.719 111.562 6.25 95.784 6.25 76.5s15.469-35.063 34.375-35.063S75 57.216 75 76.5c0 19.284-15.469 35.062-34.375 35.062Zm0-51C32.031 60.563 25 67.734 25 76.5c0 8.766 7.031 15.938 15.625 15.938 8.594 0 15.625-7.172 15.625-15.938 0-8.766-7.031-15.938-15.625-15.938Z" fill="#4285F4"/><path d="M131.25 86.063h-25v19.125h12.5v-6.376c0-3.506 2.812-6.374 6.25-6.374s6.25 2.868 6.25 6.374v6.376h12.5V86.062h-12.5Z" fill="#34A853"/><path d="M73.75 66.938H53.125C55 69.647 56.25 72.834 56.25 76.5c0 3.666-1.25 6.853-3.125 9.563H73.75C74.531 83.034 75 79.847 75 76.5c0-3.347-.469-6.534-1.25-9.563Z" fill="#EA4335"/><path d="M106.25 66.938h-32.5C74.531 69.966 75 73.153 75 76.5c0 3.347-.469 6.534-1.25 9.563h32.5V66.936Z" fill="#FBBC04"/></svg>